PathFileType	4	(x/y/z)	S09_PSF_T08
DataRate	CameraRate	NumFrames	NumMarkers	Units	OrigDataRate	OrigDataStartFrame	OrigNumFrames
240	240	7	51	mm	240	237	473
Frame#	Time	Sternum			R.Acromium			L.Acromium			Top.Head			R.ASIS			L.ASIS			R.PSIS			L.PSIS			R.Great.Tro			L.Great.Tro			R.Iliac.Crest			L.Iliac.Crest			V.Sacral			R.Thigh.Upper.Post			R.Thigh.Lower.Ant			R.Thigh.Lower.Post			R.Thigh.Upper.Ant			R.Knee.Lat			R.Knee.Med			R.Shank.Upper.Post			R.Shank.Lower.Ant			R.Shank.Lower.Post			R.Shank.Upper.Ant			R.Ankle.Lat			R.Ankle.Med			R.Heel.Upper			R.Heel.Med			R.Heel.Lat			R.Toe.Lat			R.Toe.Med			R.Toe.Tip			L.Thigh.Upper.Post			L.Thigh.Lower.Ant			L.Thigh.Lower.Post			L.Thigh.Upper.Ant			L.Knee.Lat			L.Knee.Med			L.Shank.Upper.Post			L.Shank.Lower.Ant			L.Shank.Lower.Post			L.Shank.Upper.Ant			L.Ankle.Lat			L.Ankle.Med			L.Heel.Upper			L.Heel.Med			L.Heel.Lat			L.Toe.Lat			L.Toe.Med			L.Toe.Tip			Cervical.Spine			Back			
		X1	Y1	Z1	X2	Y2	Z2	X3	Y3	Z3	X4	Y4	Z4	X5	Y5	Z5	X6	Y6	Z6	X7	Y7	Z7	X8	Y8	Z8	X9	Y9	Z9	X10	Y10	Z10	X11	Y11	Z11	X12	Y12	Z12	X13	Y13	Z13	X14	Y14	Z14	X15	Y15	Z15	X16	Y16	Z16	X17	Y17	Z17	X18	Y18	Z18	X19	Y19	Z19	X20	Y20	Z20	X21	Y21	Z21	X22	Y22	Z22	X23	Y23	Z23	X24	Y24	Z24	X25	Y25	Z25	X26	Y26	Z26	X27	Y27	Z27	X28	Y28	Z28	X29	Y29	Z29	X30	Y30	Z30	X31	Y31	Z31	X32	Y32	Z32	X33	Y33	Z33	X34	Y34	Z34	X35	Y35	Z35	X36	Y36	Z36	X37	Y37	Z37	X38	Y38	Z38	X39	Y39	Z39	X40	Y40	Z40	X41	Y41	Z41	X42	Y42	Z42	X43	Y43	Z43	X44	Y44	Z44	X45	Y45	Z45	X46	Y46	Z46	X47	Y47	Z47	X48	Y48	Z48	X49	Y49	Z49	X50	Y50	Z50	X51	Y51	Z51	

237	0.98333	-342.03	1205	348.65	-480.45	1449	508.68	-496.35	1439.7	193.67	-477.69	1748.9	339.44	-383.07	1033.4	464.03	-406.23	1034.1	220.52	-611.71	1049.3	404.51	-613.71	1046.5	314.35	-458.55	945.3	541.59	-473.9	941.45	154.31	-468.71	1111.3	514.43	-517.56	1123.1	194.21	-631.25	1011.7	358.09	-479.49	691.77	504.3	-418.97	588.96	453.39	-494.53	603.05	475.43	-410.84	674.19	485.57	-453.05	515.86	445.91	-471.19	514.38	326.24	-553.48	351.94	452.01	-495.85	283.69	434.21	-567.25	277.5	438.87	-488.49	356.06	448.78	-572	94.487	412.44	-549.89	104.31	322.18	-636.78	80.977	361.59	-628	48.153	333.43	-635.83	51.529	398.06	-476.46	40.964	451.06	-427.59	41.008	343.54	-380.22	56.365	390.39	-429.86	679.51	183.41	-321.63	620.6	160.77	-380.9	603.11	192.25	-367.98	695.18	148.56	-319.13	543.85	170.1	-268.98	553.12	299.82	-404.2	438.49	171.56	-373.5	332.07	171.05	-428.05	365.44	179.46	-349.4	405.86	164.52	-476.25	170.98	199.96	-437.45	156.79	285.54	-541.6	153.41	269.56	-529.85	124	298.42	-555.87	129.07	242.51	-412.14	71.393	148.02	-351.94	56.475	242.46	-313.48	61.579	174.35	-563.82	1491.1	364.32	-607.99	1223.9	357.91
238	0.9875	-337.11	1205	348.86	-475.27	1449	508.58	-491.34	1439.5	193.6	-472.37	1748.9	339.36	-378.66	1033.1	464.25	-401.13	1034.3	220.68	-607.06	1049.2	403.91	-608.78	1046.5	313.74	-454.55	945.02	541.45	-468.32	941.83	153.99	-464.3	1110.9	514.43	-512.23	1123.4	194.17	-626.48	1011.8	357.4	-476.92	691.8	504.15	-416.94	588.63	453.41	-492.4	603.15	475.4	-408.31	673.87	485.53	-451.51	515.64	445.99	-469.49	514.18	326.27	-552.59	352.11	451.97	-495.2	283.73	434.28	-566.6	277.72	438.81	-487.63	356.05	448.81	-571.87	94.637	412.34	-549.73	104.43	322.13	-636.71	81.074	361.5	-627.91	48.243	333.4	-635.77	51.67	398.01	-476.43	40.912	451.06	-427.54	40.973	343.56	-380.14	56.213	390.45	-424.24	679.78	183.34	-315.75	621	161.15	-375.16	603.43	192.46	-362.22	695.55	148.78	-312.99	543.98	170.67	-263.4	553.82	300.31	-395.86	436.39	171.81	-362.42	330.82	170.84	-417.81	362.74	179.34	-340.25	405.21	164.65	-460.67	166.88	198.91	-421.7	153.39	284.54	-525.71	147.25	268.29	-513.19	118	297.06	-539.2	122.58	241.08	-393.69	69.355	146.7	-333.26	55.826	241.25	-294.83	62.23	173.19	-558.68	1491.1	364.25	-603.01	1223.9	357.91
239	0.99167	-332.18	1205	349.06	-470.09	1449.1	508.49	-486.33	1439.3	193.53	-467.05	1748.8	339.27	-374.23	1032.7	464.44	-396.01	1034.4	220.82	-602.39	1049.2	403.3	-603.82	1046.5	313.11	-450.54	944.72	541.3	-462.75	942.15	153.67	-459.87	1110.6	514.4	-506.87	1123.6	194.11	-621.69	1011.8	356.71	-474.34	691.81	503.99	-414.89	588.3	453.4	-490.24	603.22	475.35	-405.77	673.54	485.47	-449.95	515.4	446.06	-467.77	513.97	326.29	-551.69	352.28	451.91	-494.54	283.77	434.36	-565.93	277.95	438.75	-486.75	356.03	448.83	-571.74	94.789	412.24	-549.56	104.56	322.08	-636.64	81.166	361.4	-627.79	48.327	333.37	-635.71	51.81	397.95	-476.4	40.859	451.05	-427.48	40.938	343.58	-380.06	56.061	390.51	-418.72	679.96	183.3	-309.99	621.27	161.57	-369.56	603.63	192.71	-356.56	695.8	149.03	-307	543.99	171.26	-257.96	554.38	300.83	-387.56	434.21	172.07	-351.36	329.57	170.64	-407.58	360	179.23	-331.17	404.51	164.79	-444.95	162.84	197.85	-405.83	150.08	283.53	-509.6	141.21	267.01	-496.32	112.14	295.71	-522.31	116.2	239.65	-375.17	67.449	145.41	-314.53	55.344	240.06	-276.19	63.015	172.06	-553.52	1491	364.18	-598.02	1223.8	357.91
240	0.99583	-327.23	1204.9	349.25	-464.91	1449	508.38	-481.3	1439.1	193.44	-461.72	1748.6	339.18	-369.8	1032.2	464.59	-390.86	1034.4	220.92	-597.71	1049.2	402.67	-598.84	1046.5	312.48	-446.53	944.39	541.13	-457.19	942.39	153.36	-455.42	1110.2	514.35	-501.5	1123.8	194.04	-616.88	1011.8	356	-471.73	691.8	503.83	-412.82	587.94	453.37	-488.06	603.28	475.29	-403.24	673.2	485.41	-448.36	515.16	446.12	-466.01	513.76	326.29	-550.78	352.45	451.83	-493.87	283.81	434.42	-565.25	278.17	438.66	-485.85	356.01	448.83	-571.6	94.941	412.13	-549.38	104.68	322.01	-636.57	81.254	361.29	-627.66	48.404	333.33	-635.65	51.948	397.89	-476.36	40.805	451.04	-427.43	40.901	343.6	-379.97	55.908	390.58	-413.31	680.06	183.31	-304.35	621.38	162.04	-364.1	603.73	193	-351.01	695.94	149.32	-301.18	543.89	171.87	-252.68	554.79	301.39	-379.3	431.94	172.34	-340.32	328.33	170.44	-397.34	357.22	179.12	-322.16	403.77	164.94	-429.1	158.91	196.78	-389.84	146.9	282.52	-493.27	135.29	265.73	-479.26	106.44	294.37	-505.2	109.97	238.23	-356.6	65.692	144.14	-295.77	55.04	238.91	-257.57	63.947	170.95	-548.36	1490.9	364.1	-593.03	1223.7	357.89
241	1	-322.26	1204.8	349.43	-459.72	1449	508.28	-476.27	1438.8	193.35	-456.4	1748.4	339.07	-365.34	1031.8	464.72	-385.68	1034.4	220.99	-593	1049.1	402.03	-593.83	1046.5	311.83	-442.52	944.05	540.95	-451.64	942.57	153.04	-450.95	1109.8	514.27	-496.11	1123.9	193.94	-612.05	1011.8	355.28	-469.11	691.77	503.67	-410.74	587.57	453.33	-485.86	603.32	475.2	-400.69	672.84	485.34	-446.75	514.9	446.16	-464.22	513.53	326.27	-549.84	352.62	451.74	-493.17	283.84	434.48	-564.56	278.4	438.57	-484.93	355.98	448.83	-571.45	95.095	412.01	-549.19	104.8	321.93	-636.5	81.339	361.17	-627.51	48.475	333.3	-635.59	52.087	397.82	-476.33	40.749	451.03	-427.38	40.861	343.61	-379.87	55.754	390.64	-408.02	680.07	183.35	-298.84	621.36	162.56	-358.79	603.73	193.32	-345.57	695.96	149.63	-295.5	543.67	172.49	-247.54	555.07	301.98	-371.08	429.59	172.62	-329.31	327.1	170.26	-387.11	354.41	179	-313.22	402.99	165.1	-413.13	155.08	195.71	-373.74	143.85	281.51	-476.74	129.52	264.45	-462.01	100.92	293.04	-487.9	103.9	236.82	-337.99	64.103	142.91	-276.99	54.931	237.78	-238.98	65.042	169.87	-543.18	1490.8	364.01	-588.03	1223.6	357.86
242	1.0042	-317.27	1204.6	349.59	-454.53	1448.8	508.16	-471.22	1438.5	193.26	-451.07	1748.2	338.96	-360.87	1031.3	464.82	-380.49	1034.3	221.03	-588.28	1049.1	401.37	-588.8	1046.5	311.18	-438.5	943.68	540.77	-446.1	942.67	152.73	-446.45	1109.4	514.16	-490.71	1123.9	193.82	-607.2	1011.7	354.54	-466.48	691.71	503.49	-408.64	587.19	453.27	-483.65	603.35	475.1	-398.15	672.47	485.25	-445.12	514.63	446.18	-462.4	513.3	326.24	-548.89	352.79	451.63	-492.46	283.85	434.53	-563.85	278.62	438.45	-483.99	355.94	448.82	-571.3	95.25	411.89	-548.99	104.91	321.85	-636.42	81.424	361.04	-627.36	48.541	333.25	-635.52	52.226	397.75	-476.3	40.694	451.01	-427.34	40.817	343.63	-379.77	55.596	390.7	-402.83	680	183.43	-293.46	621.19	163.12	-353.61	603.61	193.68	-340.23	695.86	149.97	-289.97	543.32	173.13	-242.56	555.2	302.6	-362.88	427.17	172.9	-318.34	325.89	170.09	-376.87	351.59	178.89	-304.34	402.19	165.27	-397.05	151.39	194.65	-357.55	140.96	280.5	-460.01	123.91	263.2	-444.59	95.613	291.73	-470.41	98.022	235.44	-319.35	62.7	141.7	-258.21	55.029	236.69	-220.43	66.316	168.82	-538	1490.6	363.91	-583.01	1223.4	357.83
243	1.0083	-312.25	1204.3	349.74	-449.34	1448.7	508.04	-466.16	1438.1	193.15	-445.75	1748	338.83	-356.37	1030.7	464.89	-375.26	1034.2	221.05	-583.53	1049	400.69	-583.74	1046.4	310.53	-434.47	943.3	540.58	-440.57	942.69	152.43	-441.93	1109	514.03	-485.31	1123.9	193.68	-602.33	1011.7	353.79	-463.83	691.64	503.31	-406.52	586.79	453.21	-481.42	603.35	474.97	-395.6	672.08	485.16	-443.46	514.36	446.19	-460.55	513.06	326.19	-547.93	352.96	451.51	-491.73	283.86	434.57	-563.13	278.85	438.33	-483.02	355.89	448.79	-571.15	95.408	411.75	-548.78	105.03	321.75	-636.34	81.509	360.91	-627.2	48.603	333.2	-635.46	52.366	397.67	-476.26	40.64	450.98	-427.29	40.768	343.64	-379.67	55.436	390.76	-397.76	679.83	183.54	-288.2	620.87	163.72	-348.58	603.38	194.07	-335.01	695.64	150.33	-284.59	542.87	173.77	-237.72	555.19	303.27	-354.72	424.69	173.19	-307.39	324.73	169.93	-366.62	348.77	178.79	-295.54	401.36	165.45	-380.87	147.86	193.6	-341.26	138.24	279.49	-443.1	118.49	261.97	-427	90.528	290.46	-452.76	92.345	234.08	-300.7	61.503	140.53	-239.44	55.349	235.62	-201.93	67.787	167.79	-532.81	1490.3	363.81	-577.99	1223.1	357.78
